<svg id="Layer_1" data-name="Layer 1" xmlns="http://www.w3.org/2000/svg" viewBox="0 0 46.11 46.11"><defs><style>.cls-1{fill:#5c74ff;}.cls-2{fill:none;stroke:#fff;stroke-miterlimit:10;stroke-width:1.5px;}.cls-3{fill:#fff;}</style></defs><title>logo navbar 1</title><rect class="cls-1" width="46.1" height="46.1"/><path class="cls-2" d="M38.42,8.7s.32,7.72,7.68,7.72"/><line class="cls-2" x1="38.42" y1="46.1" x2="38.42" y2="8.7"/><path class="cls-2" d="M38.42,20.55s.32,7.73,7.68,7.73"/><path class="cls-2" d="M38.42,32.87s.32,7.73,7.68,7.73"/><path class="cls-2" d="M38.42,8.7s-.32,7.72-7.68,7.72"/><path class="cls-2" d="M38.42,20.55s-.32,7.73-7.68,7.73"/><path class="cls-2" d="M38.42,32.87s-.32,7.73-7.68,7.73"/><line class="cls-2" x1="23.05" y1="46.1" x2="23.05" y2="20.55"/><path class="cls-2" d="M23.05,20.55s.32,7.73,7.69,7.73"/><path class="cls-2" d="M23.05,32.87s.32,7.73,7.69,7.73"/><path class="cls-2" d="M23.05,20.55s-.31,7.73-7.68,7.73"/><path class="cls-2" d="M23.05,32.87s-.31,7.73-7.68,7.73"/><line class="cls-2" x1="7.68" y1="46.1" x2="7.68" y2="32.87"/><path class="cls-2" d="M7.68,32.87S8,40.6,15.37,40.6"/><path class="cls-2" d="M7.68,32.87S7.37,40.6,0,40.6"/><path class="cls-3" d="M15.75,10.45a.09.09,0,0,0,0-.18,4.14,4.14,0,0,1-4.14-4.14.09.09,0,0,0-.17,0A4.14,4.14,0,0,1,7.3,10.27a.09.09,0,1,0,0,.18,4.14,4.14,0,0,1,4.14,4.14.09.09,0,0,0,.17,0A4.14,4.14,0,0,1,15.75,10.45Z"/></svg>